<svg id="main" xmlns="http://www.w3.org/2000/svg" xmlns:xlink="http://www.w3.org/1999/xlink" viewBox="0 0 115.97 163.32"><defs><style>.cls-1{fill:#fff;}.cls-2{fill:#200b7a;}.cls-3{fill:url(#linear-gradient);}</style><linearGradient id="linear-gradient" x1="35.68" y1="2.92" x2="78.49" y2="74.13" gradientUnits="userSpaceOnUse"><stop offset="0" stop-color="#da150e"/><stop offset="0" stop-color="#dc150e"/><stop offset="0" stop-color="#e5160d"/><stop offset="0" stop-color="#e9160d"/><stop offset="0.24" stop-color="#e6160e"/><stop offset="0.38" stop-color="#de1513"/><stop offset="0.51" stop-color="#cf151b"/><stop offset="0.62" stop-color="#bb1326"/><stop offset="0.72" stop-color="#a01234"/><stop offset="0.81" stop-color="#7f1046"/><stop offset="0.9" stop-color="#590e5b"/><stop offset="0.98" stop-color="#2d0c73"/><stop offset="1" stop-color="#200b7a"/></linearGradient></defs><rect class="cls-1" width="115.97" height="163.32"/><path class="cls-2" d="M20.71,144.56c-1.65,0-2.45-.56-2.45-1.72s.78-1.72,2.45-1.72h6.81a2.82,2.82,0,0,0,1.93-.86l.93-.84a2.28,2.28,0,0,0,.57-1.61v-5.28l-.95.94c-1.2,1.18-2.18,1.76-3,1.76H22.65a3.74,3.74,0,0,1-2.72-1.08l-2.32-2.05c-1-.93-1.13-1.78-1.13-3.35v-5.56a5,5,0,0,1,1.24-3.76l2.71-2.1a3.23,3.23,0,0,1,2.26-.85h3.59c.87,0,1.94.54,3.58,1.8l1.09.86v-.64a1.81,1.81,0,0,1,1.8-2c1.5,0,1.71,1.17,1.71,2.44v17.86c0,3.41-.31,4-1.78,5.22l-1.24,1a5.82,5.82,0,0,1-4.58,1.54Zm2.48-24.64a1.69,1.69,0,0,0-1.15.37l-1.55,1.22c-.46.37-.5,1.18-.5,2v4.72c0,.8,0,1.62.5,2L22,131.42a1.71,1.71,0,0,0,1.15.37H25.9c.48,0,1-.36,1.77-1l2.86-2.32a1.79,1.79,0,0,0,.42-1.3v-2.67a1.83,1.83,0,0,0-.42-1.3l-2.86-2.32c-.76-.62-1.29-1-1.77-1Z"/><path class="cls-2" d="M20.71,144.27c-1.9,0-2.15-.77-2.15-1.43s.26-1.43,2.15-1.43h6.81a3.1,3.1,0,0,0,2.12-.93l.94-.84a2.57,2.57,0,0,0,.67-1.83v-6l-1.46,1.44c-1.13,1.11-2.06,1.67-2.77,1.67H22.65a3.39,3.39,0,0,1-2.52-1l-2.33-2.06c-.92-.84-1-1.6-1-3.12v-5.56a4.84,4.84,0,0,1,1.12-3.53l2.71-2.09a3,3,0,0,1,2.08-.8h3.59c.8,0,1.81.53,3.4,1.75l1.57,1.23V118.5c0-.83.39-1.73,1.5-1.73s1.41.59,1.41,2.15v17.87c0,3.29-.27,3.81-1.67,5l-1.24,1a5.54,5.54,0,0,1-4.39,1.47Zm2.48-24.65a2,2,0,0,0-1.34.44l-1.54,1.21a2.79,2.79,0,0,0-.62,2.22v4.72a2.81,2.81,0,0,0,.61,2.22l1.56,1.23a2,2,0,0,0,1.33.43H25.9a3.45,3.45,0,0,0,2-1.05l2.87-2.32a2.08,2.08,0,0,0,.53-1.53v-2.67a2.07,2.07,0,0,0-.53-1.53l-2.87-2.32a3.45,3.45,0,0,0-2-1Z"/><path class="cls-2" d="M50.7,136.79c-.58,0-1.09-.6-1.46-1.13l-2.1-3.1-2.1,3.1c-.37.53-.87,1.13-1.46,1.13H42.15c-1.06,0-1.33-.84-1.65-1.81,0-.14-1.93-5.74-1.94-5.79l0,0L38.16,119a2.79,2.79,0,0,1,.52-2.08,1.56,1.56,0,0,1,1.19-.43c1.47,0,1.71,1.27,1.75,2.52l.39,9.46,1.24,3.62,2.14-3.61v-3.38c0-1.14.2-2.44,1.75-2.44s1.76,1.3,1.76,2.44v3.38L51,132.09l1.24-3.63.39-9.46c0-1.25.27-2.52,1.75-2.52a1.56,1.56,0,0,1,1.19.43,2.83,2.83,0,0,1,.52,2.08l-.38,10.16s-1.92,5.68-2,5.83c-.32,1-.59,1.81-1.66,1.81Z"/><path class="cls-2" d="M50.7,136.5c-.45,0-.91-.58-1.22-1L47.14,132l-2.34,3.46c-.3.43-.76,1-1.22,1H42.15c-.81,0-1-.58-1.36-1.61l-1.95-5.8L38.45,119a2.6,2.6,0,0,1,.44-1.87,1.34,1.34,0,0,1,1-.34c1,0,1.4.63,1.45,2.24l.39,9.51,1.47,4.27,2.51-4.24v-3.46c0-1.52.42-2.15,1.45-2.15s1.46.63,1.46,2.15v3.46l2.51,4.24,1.46-4.27L53,119c0-1.61.46-2.24,1.46-2.24a1.31,1.31,0,0,1,1,.34,2.61,2.61,0,0,1,.45,1.88l-.39,10.1-2,5.8c-.33,1-.55,1.61-1.36,1.61Z"/><path class="cls-2" d="M66.53,136.79c-1.54,0-2.12,0-3.26-1l-1.58-1.37a4.42,4.42,0,0,1-1.86-4v-7c0-1.9.27-3,1.78-4.3l1.32-1.1a4.93,4.93,0,0,1,4-1.5h3.41a5.27,5.27,0,0,1,4,1.31L75.91,119c1.6,1.25,1.9,2.56,1.9,4.68v2.93c0,2-.31,2.6-2.45,2.6h-12v1.32a1.85,1.85,0,0,0,.58,1.14l.92,1a3.3,3.3,0,0,0,2.56.72h8c1.67,0,2.45.55,2.45,1.72s-.81,1.72-2.45,1.72Zm7.77-11.06v-2.45a2,2,0,0,0-.5-1.66l-1.43-1.22a2.78,2.78,0,0,0-1.85-.48H67.39a3.12,3.12,0,0,0-2,.44l-1.28.91a1.76,1.76,0,0,0-.82,1.76v2.7Z"/><path class="cls-2" d="M66.53,136.5c-1.51,0-2,0-3.06-.9l-1.59-1.37a4.13,4.13,0,0,1-1.75-3.81v-7c0-1.85.24-2.87,1.67-4.07l1.32-1.11A4.65,4.65,0,0,1,67,116.77h3.41A5,5,0,0,1,74.22,118l1.51,1.18c1.51,1.19,1.78,2.38,1.78,4.45v2.93c0,1.89-.19,2.3-2.15,2.3H63v1.62a2.15,2.15,0,0,0,.66,1.35l.92,1a3.51,3.51,0,0,0,2.77.82h8c1.89,0,2.15.72,2.15,1.42s-.25,1.43-2.15,1.43Zm.86-16.88a3.43,3.43,0,0,0-2.13.49L64,121a2.06,2.06,0,0,0-.94,2v3H74.6v-2.75a2.27,2.27,0,0,0-.6-1.88l-1.44-1.22a3,3,0,0,0-2-.56Z"/><path class="cls-2" d="M97.77,136.79c-1.51,0-1.72-1.35-1.76-2.37l-.38-11.27c-.08-2.12-.23-3.23-2.62-3.23H91.77a2.38,2.38,0,0,0-1.22.36L85,123.7v10.68c0,1.13-.2,2.41-1.76,2.41s-1.75-1.28-1.75-2.41v-15.3c0-1.32.14-2.6,1.75-2.6S85,117.71,85,119v.67l.18-.1,3-1.93a5.93,5.93,0,0,1,3.15-1.2h2.75a4.64,4.64,0,0,1,3.37,1.3c1.51,1.28,1.56,2.67,1.62,4.44l.4,11.94a3.14,3.14,0,0,1-.53,2.2A1.56,1.56,0,0,1,97.77,136.79Z"/><path class="cls-2" d="M97.77,136.5c-1,0-1.41-.63-1.46-2.09l-.39-11.27c-.07-2.18-.25-3.52-2.91-3.52H91.77a2.73,2.73,0,0,0-1.37.4l-5.69,3.51v10.85c0,1.5-.42,2.12-1.46,2.12s-1.45-.62-1.45-2.12v-15.3c0-1.5.23-2.31,1.45-2.31,1.06,0,1.46.62,1.46,2.27v1.15l.62-.32,3-1.94a5.74,5.74,0,0,1,3-1.16h2.75A4.35,4.35,0,0,1,97.27,118c1.41,1.19,1.45,2.46,1.51,4.22l.4,11.94a2.94,2.94,0,0,1-.45,2A1.29,1.29,0,0,1,97.77,136.5Z"/><path class="cls-3" d="M94.67,18.77c-4.13-.39-17.8,11.34-27.8,25.62a125.69,125.69,0,0,0-8.72,13.94C56.72,55,54.08,49.75,47.84,41.06,38,27.3,25.36,17.65,20.32,20c-7.65,3.55-2.43,31.87,3.3,45.85,2.71,6.6,7.17,16.33,14.6,24.57,4.87,5.41,9.1,8.08,12.82,8.08a7.53,7.53,0,0,0,3.09-.66c5-2.23,5.36-10.61,5.27-17.59a9.42,9.42,0,0,0,3.69,5C66,87,70,86.22,74.36,83.07c5.31-3.85,10-10.5,13.14-18.72C89.93,58,98.22,31.63,91,28.43a3.31,3.31,0,0,0-2.59.2C82.59,31,67.73,45.8,60.05,63.53c-.37-1.08-.71-2.12-1-3.05a117.25,117.25,0,0,1,9.3-15.12c10.57-15.09,23.33-25.2,26.21-24.89,4,.39,3.29,10.36,2.94,15.15l-.06.84c-1,14.5-6,30.93-12.61,41.86-7,11.57-13.23,18.47-16.59,18.47V98.5c5.25,0,12.73-10.5,18.08-19.3C93,68.05,98.09,51.32,99.12,36.58l.06-.84C99.63,29.6,100.38,19.32,94.67,18.77ZM53.42,96.27c-3.61,1.6-8.28-.75-13.9-7-7.25-8-11.63-17.6-14.29-24.08-6.49-15.83-9.74-41.08-4.17-43.66a2.41,2.41,0,0,1,1-.2c4.22,0,14.65,7.21,24.34,20.71,6.37,8.87,8.93,14.13,10.29,17.32.14.3.27.64.41,1-.27.54-.53,1.09-.78,1.64-.09.18-.15.35-.23.53-4.64-13.12-19-30.07-27-33.64a5,5,0,0,0-4-.43,5.78,5.78,0,0,0-3,3.5c-2.54,6.74.5,21.11,4.94,30.3,2.27,4.69,6,11,9.25,14.49,5.58,6,10.49,9.35,13.63,9.35a3.59,3.59,0,0,0,1.46-.29A2.45,2.45,0,0,0,52.68,85c1.24-1.53,1.65-4.66,1.25-9.32a9.79,9.79,0,0,0,1-2.19A12.85,12.85,0,0,0,55.19,72a40.62,40.62,0,0,1,.83-4c.38,1.32.65,2.31.95,3.6,0,0,.24.93.63,2.3,0,1.18,0,2.58,0,4.14C57.76,84.53,58,94.26,53.42,96.27ZM32.67,60.44C29.12,54,26.81,43.3,30.34,41.65S41.89,48,45.48,54.47c4.83,8.74,5.87,17.15,2.33,18.8S37.49,69.17,32.67,60.44ZM53.59,71.11c-.24-4.75-2.26-11.16-5.88-17.7-4.79-8.68-15.47-19.3-20.18-17.1s-1.63,16.5,3.09,25.06C35.73,70.61,42.48,77.32,47.4,78.6l0,.1a6.23,6.23,0,0,0,1.47.13,4.38,4.38,0,0,0,1.59-.25,5.38,5.38,0,0,0,1.87-1c.23,5.84-1.24,6.58-1.2,6.58h-.19l-.16.09c-1.19.62-5.45-.39-13.11-8.64-3.11-3.35-6.82-9.64-9-14.08-4.2-8.69-7.24-22.73-4.89-29a4.15,4.15,0,0,1,2.06-2.52,3.52,3.52,0,0,1,2.54.42c7.73,3.46,22.49,21.13,26.45,33.79l0,0,.23.79A36.53,36.53,0,0,0,53.59,71.11Zm6,.44a10.55,10.55,0,0,0,.24-1.24c.06-.38.12-.81.21-1.28.18.55.38,1.14.63,1.81,1,2.82,2.86,4.57,4.12,5a6.91,6.91,0,0,0,5.79-.49c3.84-1.73,8.75-7.26,12.59-14.65,3.91-7.55,6.48-19.88,2.74-21.77s-12.43,7.46-16.3,14.9c-4.48,8.65-6,17-4,20.45l-.2,0a6.93,6.93,0,0,1-3-4c-.45-1.24-.75-2.16-1.08-3.17-.11-.34-.22-.69-.35-1.07l0-.08C68.17,47.86,83.29,32.53,89.1,30.22A2,2,0,0,1,90.33,30c4.35,1.94.2,21.6-4.46,33.75-3,7.81-7.57,14.35-12.54,17.95-3.7,2.68-7.1,3.45-9.35,2.13s-3.37-5.21-4.15-8.24c-.16-.65-.32-1.27-.48-1.84A10.18,10.18,0,0,1,59.59,71.55ZM72.73,54.27c1.62-3.86,5.65-8.83,7.7-8s1.38,7.12-.26,11c-2.19,5.25-5.65,8.83-7.7,8S70.53,59.52,72.73,54.27Zm-14.3,9.9.49,1.46c0,.13.09.25.13.37a19.67,19.67,0,0,0-.84,3.44c-.26-1-.55-2-1-3.31l-.31-1c.28-.76.59-1.55,1-2.37l0,0C58.1,63.17,58.26,63.67,58.43,64.17Z"/></svg>